<svg xmlns="http://www.w3.org/2000/svg" xmlns:xlink="http://www.w3.org/1999/xlink" width="500" zoomAndPan="magnify" viewBox="0 0 375 374.999991" height="500" preserveAspectRatio="xMidYMid meet" version="1.0"><defs><clipPath id="7e06bc42d0"><path d="M 187.5 0 C 83.945312 0 0 83.945312 0 187.5 C 0 291.054688 83.945312 375 187.5 375 C 291.054688 375 375 291.054688 375 187.5 C 375 83.945312 291.054688 0 187.5 0 Z M 187.5 0 " clip-rule="nonzero"/></clipPath><clipPath id="267f4adc75"><path d="M 0 0 L 375 0 L 375 375 L 0 375 Z M 0 0 " clip-rule="nonzero"/></clipPath><clipPath id="e5087a02de"><path d="M 187.5 0 C 83.945312 0 0 83.945312 0 187.5 C 0 291.054688 83.945312 375 187.5 375 C 291.054688 375 375 291.054688 375 187.5 C 375 83.945312 291.054688 0 187.5 0 Z M 187.5 0 " clip-rule="nonzero"/></clipPath><clipPath id="528695c49c"><rect x="0" width="375" y="0" height="375"/></clipPath><clipPath id="b6e37b08da"><path d="M 123 32.128906 L 231.734375 32.128906 L 231.734375 262.238281 L 123 262.238281 Z M 123 32.128906 " clip-rule="nonzero"/></clipPath><clipPath id="7c47f48717"><path d="M 1 0.378906 L 72 0.378906 L 72 199 L 1 199 Z M 1 0.378906 " clip-rule="nonzero"/></clipPath><clipPath id="72827a182e"><path d="M 96 217 L 108.261719 217 L 108.261719 230.238281 L 96 230.238281 Z M 96 217 " clip-rule="nonzero"/></clipPath><clipPath id="eaae2890fc"><rect x="0" width="109" y="0" height="231"/></clipPath><clipPath id="7a212d9460"><path d="M 1.101562 0.640625 L 109 0.640625 L 109 230.960938 L 1.101562 230.960938 Z M 1.101562 0.640625 " clip-rule="nonzero"/></clipPath><clipPath id="359e8d1b52"><path d="M 37 32 L 108 32 L 108 230.609375 L 37 230.609375 Z M 37 32 " clip-rule="nonzero"/></clipPath><clipPath id="7b2732c361"><path d="M 0.722656 0.640625 L 13 0.640625 L 13 14 L 0.722656 14 Z M 0.722656 0.640625 " clip-rule="nonzero"/></clipPath><clipPath id="f660ee1864"><rect x="0" width="108" y="0" height="231"/></clipPath><clipPath id="81822e5105"><rect x="0" width="233" y="0" height="263"/></clipPath></defs><g clip-path="url(#7e06bc42d0)"><g transform="matrix(1, 0, 0, 1, 0, 0)"><g clip-path="url(#528695c49c)"><g clip-path="url(#267f4adc75)"><g clip-path="url(#e5087a02de)"><rect x="-82.5" width="540" fill="#ffffff" height="539.999987" y="-82.499998" fill-opacity="1"/></g></g></g></g></g><g transform="matrix(1, 0, 0, 1, 71, 56)"><g clip-path="url(#81822e5105)"><g clip-path="url(#b6e37b08da)"><g transform="matrix(1, 0, 0, 1, 123, 32)"><g clip-path="url(#eaae2890fc)"><path fill="#ff8a00" d="M 77.269531 186.25 L 61.078125 186.25 L 61.078125 202.445312 L 77.269531 202.445312 L 77.269531 186.25 " fill-opacity="1" fill-rule="nonzero"/><path fill="#ff8a00" d="M 73.449219 153.867188 L 61.078125 153.867188 L 61.078125 166.238281 L 73.449219 166.238281 L 73.449219 153.867188 " fill-opacity="1" fill-rule="nonzero"/><g clip-path="url(#7c47f48717)"><path fill="#ff8a00" d="M 26.34375 173.878906 L 26.34375 186.25 L 38.714844 186.25 L 38.714844 173.878906 Z M 57.8125 116.039062 C 54.707031 118.421875 52.398438 122.367188 50.878906 127.882812 C 50.046875 131 49.546875 136.964844 49.386719 145.769531 L 38.714844 145.769531 L 38.714844 161.964844 L 49.152344 161.964844 C 48.890625 168.207031 48.347656 173.074219 47.515625 176.558594 C 46.308594 181.628906 44.015625 185.90625 40.636719 189.386719 C 37.257812 192.867188 33.085938 195.335938 28.121094 196.785156 C 23.152344 198.234375 16.019531 198.957031 6.707031 198.957031 L 1.222656 198.957031 L 1.222656 174.230469 C 9.015625 174.230469 14.03125 173.765625 16.273438 172.835938 C 18.515625 171.902344 20.066406 170.574219 20.929688 168.851562 C 21.792969 167.128906 22.257812 163.679688 22.328125 158.507812 C 22.671875 142.09375 23.222656 131.472656 23.980469 126.644531 C 25.152344 119.609375 27.359375 113.816406 30.601562 109.265625 C 32.945312 106.089844 36.671875 102.847656 41.777344 99.539062 C 37.84375 97.265625 34.617188 94.625 32.101562 91.625 C 29.582031 88.625 27.566406 84.96875 26.050781 80.660156 C 24.535156 76.347656 23.601562 70.605469 23.257812 63.433594 C 22.707031 51.570312 22.414062 43.539062 22.378906 39.332031 C 22.34375 35.125 21.792969 32.140625 20.722656 30.382812 C 19.652344 28.621094 17.980469 27.277344 15.707031 26.34375 C 13.429688 25.414062 8.601562 24.949219 1.222656 24.949219 L 1.222656 0.121094 L 6.707031 0.121094 C 15.738281 0.121094 22.359375 0.742188 26.566406 1.984375 C 32.84375 3.847656 37.601562 6.378906 40.847656 9.585938 C 44.085938 12.792969 46.308594 17.054688 47.515625 22.363281 C 48.722656 27.675781 49.328125 37.019531 49.328125 50.402344 C 49.328125 58.535156 49.601562 64.261719 50.15625 67.574219 C 50.914062 71.984375 52.207031 75.660156 54.035156 78.589844 C 55.859375 81.519531 58.050781 83.609375 60.605469 84.847656 C 63.152344 86.089844 66.949219 86.847656 71.984375 87.125 L 71.984375 111.953125 C 65.636719 112.296875 60.914062 113.660156 57.8125 116.039062 " fill-opacity="1" fill-rule="nonzero"/></g><g clip-path="url(#72827a182e)"><path fill="#ff8a00" d="M 108.84375 217.699219 L 96.46875 217.699219 L 96.46875 230.070312 L 108.84375 230.070312 L 108.84375 217.699219 " fill-opacity="1" fill-rule="nonzero"/></g><path fill="#ff8a00" d="M 46.808594 202.445312 L 23.714844 202.445312 L 23.714844 225.539062 L 46.808594 225.539062 L 46.808594 202.445312 " fill-opacity="1" fill-rule="nonzero"/></g></g></g><g clip-path="url(#7a212d9460)"><g transform="matrix(1, 0, 0, 1, 1, 0)"><g clip-path="url(#f660ee1864)"><path fill="#7e22ce" d="M 31.710938 44.738281 L 47.90625 44.738281 L 47.90625 28.546875 L 31.710938 28.546875 L 31.710938 44.738281 " fill-opacity="1" fill-rule="nonzero"/><path fill="#7e22ce" d="M 35.535156 77.121094 L 47.90625 77.121094 L 47.90625 64.75 L 35.535156 64.75 L 35.535156 77.121094 " fill-opacity="1" fill-rule="nonzero"/><g clip-path="url(#359e8d1b52)"><path fill="#7e22ce" d="M 82.640625 57.109375 L 82.640625 44.738281 L 70.269531 44.738281 L 70.269531 57.109375 Z M 51.171875 114.949219 C 54.277344 112.570312 56.585938 108.621094 58.105469 103.105469 C 58.9375 99.992188 59.433594 94.023438 59.597656 85.21875 L 70.269531 85.21875 L 70.269531 69.023438 L 59.832031 69.023438 C 60.089844 62.78125 60.636719 57.914062 61.464844 54.429688 C 62.671875 49.359375 64.96875 45.082031 68.34375 41.601562 C 71.722656 38.121094 75.898438 35.652344 80.863281 34.203125 C 85.828125 32.753906 92.964844 32.03125 102.277344 32.03125 L 107.761719 32.03125 L 107.761719 56.757812 C 99.96875 56.757812 94.949219 57.222656 92.707031 58.152344 C 90.46875 59.085938 88.917969 60.414062 88.050781 62.136719 C 87.191406 63.859375 86.726562 67.308594 86.65625 72.480469 C 86.3125 88.894531 85.761719 99.515625 85 104.34375 C 83.832031 111.378906 81.625 117.171875 78.378906 121.722656 C 76.035156 124.898438 72.3125 128.140625 67.207031 131.449219 C 71.136719 133.722656 74.363281 136.363281 76.878906 139.363281 C 79.398438 142.363281 81.414062 146.019531 82.933594 150.328125 C 84.449219 154.640625 85.378906 160.382812 85.726562 167.554688 C 86.277344 179.417969 86.570312 187.449219 86.601562 191.65625 C 86.640625 195.863281 87.191406 198.847656 88.261719 200.605469 C 89.332031 202.367188 91 203.710938 93.277344 204.644531 C 95.554688 205.574219 100.382812 206.039062 107.761719 206.039062 L 107.761719 230.867188 L 102.277344 230.867188 C 93.242188 230.867188 86.621094 230.246094 82.414062 229.003906 C 76.140625 227.140625 71.382812 224.609375 68.136719 221.402344 C 64.898438 218.195312 62.671875 213.933594 61.464844 208.625 C 60.257812 203.3125 59.65625 193.96875 59.65625 180.589844 C 59.65625 172.453125 59.378906 166.726562 58.828125 163.414062 C 58.070312 159.003906 56.777344 155.328125 54.949219 152.398438 C 53.121094 149.46875 50.929688 147.382812 48.378906 146.140625 C 45.828125 144.898438 42.03125 144.140625 37 143.863281 L 37 119.035156 C 43.347656 118.691406 48.066406 117.328125 51.171875 114.949219 " fill-opacity="1" fill-rule="nonzero"/></g><g clip-path="url(#7b2732c361)"><path fill="#7e22ce" d="M 0.140625 13.289062 L 12.511719 13.289062 L 12.511719 0.917969 L 0.140625 0.917969 L 0.140625 13.289062 " fill-opacity="1" fill-rule="nonzero"/></g><path fill="#7e22ce" d="M 62.171875 28.546875 L 85.265625 28.546875 L 85.265625 5.453125 L 62.171875 5.453125 L 62.171875 28.546875 " fill-opacity="1" fill-rule="nonzero"/></g></g></g></g></g></svg>